<?xml version="1.0" standalone="no"?>
<!DOCTYPE svg PUBLIC "-//W3C//DTD SVG 20010904//EN"
 "http://www.w3.org/TR/2001/REC-SVG-20010904/DTD/svg10.dtd">
<svg version="1.0" xmlns="http://www.w3.org/2000/svg"
 width="512.000000pt" height="512.000000pt" viewBox="0 0 512.000000 512.000000"
 preserveAspectRatio="xMidYMid meet">
<metadata>
Created by potrace 1.11, written by Peter Selinger 2001-2013
</metadata>
<g transform="translate(0.000000,512.000000) scale(0.100000,-0.100000)"
fill="#000000" stroke="none">
<path d="M880 5089 c-117 -8 -169 -21 -283 -69 -174 -73 -338 -213 -439 -377
-47 -75 -100 -195 -113 -253 -2 -8 -9 -35 -16 -60 -9 -35 -13 -418 -14 -1695
-1 -907 1 -1698 5 -1756 11 -157 52 -284 138 -427 53 -88 198 -239 278 -289
101 -64 197 -105 308 -133 78 -20 115 -20 1815 -20 1907 0 1780 -4 1945 62 93
36 176 83 235 132 22 19 44 36 48 38 8 3 89 91 131 141 12 15 22 31 22 36 0 5
4 11 8 13 12 4 84 142 101 193 8 22 23 72 34 110 20 69 21 97 22 1745 2 1480
-1 1801 -18 1860 -2 8 -7 29 -12 45 -42 166 -121 303 -244 426 -149 148 -322
240 -516 275 -53 10 -3299 12 -3435 3z m3385 -393 c70 -14 168 -61 235 -114
116 -91 198 -240 209 -376 9 -113 6 -3300 -3 -3353 -16 -98 -84 -222 -161
-296 -37 -36 -110 -87 -123 -87 -6 0 -12 -3 -14 -7 -4 -11 -75 -43 -93 -43 -8
0 -15 -3 -15 -7 0 -5 -28 -10 -63 -12 -107 -6 -3227 -5 -3323 1 -75 5 -104 12
-165 40 -75 35 -163 96 -187 130 -8 10 -22 26 -32 36 -43 41 -105 178 -117
257 -8 53 -10 3111 -2 3285 5 122 9 141 36 200 16 36 29 67 29 70 0 6 30 43
72 87 17 19 32 38 32 41 1 10 85 70 117 84 15 7 35 17 43 23 19 14 85 34 142
41 24 4 44 7 46 9 7 6 3303 -2 3337 -9z"/>
<path d="M3775 4187 c-70 -21 -96 -39 -135 -97 -13 -19 -27 -37 -30 -40 -6 -6
-199 -291 -215 -318 -5 -9 -13 -19 -16 -22 -5 -5 -93 -134 -119 -175 -46 -73
-245 -361 -252 -363 -4 -2 -8 -7 -8 -12 0 -5 -22 -41 -50 -82 -27 -40 -102
-152 -167 -248 -65 -96 -121 -179 -126 -185 -6 -8 -55 -80 -227 -335 -98 -145
-292 -428 -300 -438 -17 -19 -48 9 -360 318 -329 326 -383 375 -434 402 -50
26 -103 20 -158 -18 -65 -46 -291 -275 -330 -336 -23 -35 -29 -114 -13 -153 6
-17 53 -72 104 -123 50 -52 91 -98 91 -103 0 -5 6 -9 14 -9 8 0 18 -9 21 -20
3 -11 10 -20 15 -20 4 0 42 -35 83 -78 87 -89 581 -581 705 -701 45 -45 87
-81 93 -81 5 0 7 -4 4 -10 -3 -5 -1 -10 5 -10 6 0 23 -12 38 -26 55 -52 111
-72 189 -69 122 6 172 41 279 200 33 50 142 209 242 353 100 145 182 267 182
271 0 3 11 18 25 33 14 15 25 29 25 32 0 4 91 140 107 161 5 6 31 44 58 85 27
41 53 76 57 78 4 2 8 7 8 12 0 9 148 228 167 248 7 7 13 19 13 27 0 7 4 15 9
17 10 4 101 137 101 148 0 5 4 10 8 12 5 2 40 50 78 108 38 58 71 107 74 110
3 3 39 56 79 118 41 61 79 112 84 112 4 0 6 4 3 9 -3 5 5 20 19 35 13 14 22
26 19 26 -3 0 6 15 20 33 15 19 26 39 26 46 0 7 4 10 9 6 5 -3 13 5 17 17 4
13 23 45 43 73 20 28 42 60 49 70 32 51 53 82 66 100 50 70 186 278 186 286 0
5 4 9 9 9 5 0 14 14 21 30 7 17 16 30 20 30 7 0 6 43 -2 128 -1 6 -6 12 -11
12 -6 0 -7 3 -4 7 8 8 -61 75 -104 100 -16 10 -29 21 -29 25 0 4 -7 8 -15 8
-9 0 -18 7 -21 15 -4 8 -10 12 -15 9 -5 -3 -9 -2 -9 3 0 4 -21 21 -48 38 -26
16 -53 35 -60 42 -7 7 -19 13 -26 13 -8 0 -19 7 -26 15 -29 35 -108 57 -155
42z"/>
</g>
</svg>
